<?xml version="1.0" standalone="no"?>
<!DOCTYPE svg PUBLIC "-//W3C//DTD SVG 20010904//EN"
 "http://www.w3.org/TR/2001/REC-SVG-20010904/DTD/svg10.dtd">
<svg version="1.0" xmlns="http://www.w3.org/2000/svg"
 width="256.000000pt" height="256.000000pt" viewBox="0 0 256.000000 256.000000"
 preserveAspectRatio="xMidYMid meet">
<metadata>
Created by potrace 1.14, written by Peter Selinger 2001-2017
</metadata>
<g transform="translate(0.000000,256.000000) scale(0.100000,-0.100000)"
fill="#000000" stroke="none">
<path d="M465 2067 c-27 -13 -63 -37 -79 -53 -63 -63 -88 -176 -56 -254 12
-30 142 -261 380 -675 31 -55 95 -165 140 -245 171 -299 222 -380 257 -409 47
-39 132 -65 186 -57 56 9 139 57 169 98 18 26 320 548 454 785 13 24 78 138
146 255 67 117 128 229 135 248 28 80 11 176 -45 240 -52 61 -103 84 -187 84
-78 0 -129 -20 -177 -71 -14 -15 -126 -199 -247 -408 -283 -488 -269 -465
-278 -465 -5 0 -72 112 -151 248 -78 136 -179 310 -224 387 -120 208 -147 246
-200 278 -67 42 -154 47 -223 14z m141 -145 c20 -14 44 -57 44 -79 0 -31 -39
-72 -76 -79 -44 -8 -94 35 -94 82 0 46 37 84 82 84 18 0 38 -4 44 -8z m1399 2
c19 -8 45 -55 45 -83 0 -11 -11 -32 -24 -47 -49 -58 -146 -20 -146 57 0 57 66
95 125 73z m-691 -1249 c34 -32 35 -77 1 -110 -35 -35 -76 -33 -109 6 -34 40
-33 64 3 100 36 35 69 37 105 4z"/>
</g>
</svg>
